<mxfile host="app.diagrams.net" modified="2023-06-04T05:33:43.127Z" agent="Mozilla/5.0 (Windows NT 10.0; Win64; x64) AppleWebKit/537.36 (KHTML, like Gecko) Chrome/112.0.0.0 YaBrowser/23.5.1.714 Yowser/2.5 Safari/537.36" etag="fpCu8V_Bsb83kplNuQ3a" version="21.3.7" type="device">
  <diagram name="Страница 1" id="TB-QfNqUPNXfPgCj6M0s">
    <mxGraphModel dx="1518" dy="667" grid="1" gridSize="10" guides="1" tooltips="1" connect="1" arrows="1" fold="1" page="1" pageScale="1" pageWidth="3300" pageHeight="4681" math="0" shadow="0">
      <root>
        <mxCell id="0" />
        <mxCell id="1" parent="0" />
        <mxCell id="ySOe52zMafPQUvARHLGS-3" style="edgeStyle=orthogonalEdgeStyle;rounded=0;orthogonalLoop=1;jettySize=auto;html=1;entryX=0.5;entryY=0;entryDx=0;entryDy=0;" edge="1" parent="1" source="ySOe52zMafPQUvARHLGS-1" target="ySOe52zMafPQUvARHLGS-2">
          <mxGeometry relative="1" as="geometry" />
        </mxCell>
        <mxCell id="ySOe52zMafPQUvARHLGS-1" value="Получаем настройки обучения из формы" style="rounded=1;whiteSpace=wrap;html=1;" vertex="1" parent="1">
          <mxGeometry x="280" y="100" width="140" height="60" as="geometry" />
        </mxCell>
        <mxCell id="ySOe52zMafPQUvARHLGS-5" style="edgeStyle=orthogonalEdgeStyle;rounded=0;orthogonalLoop=1;jettySize=auto;html=1;entryX=0.5;entryY=0;entryDx=0;entryDy=0;" edge="1" parent="1" source="ySOe52zMafPQUvARHLGS-2" target="ySOe52zMafPQUvARHLGS-4">
          <mxGeometry relative="1" as="geometry" />
        </mxCell>
        <mxCell id="ySOe52zMafPQUvARHLGS-2" value="Генерируем рандомные начальные веса 28х28х10" style="rounded=0;whiteSpace=wrap;html=1;" vertex="1" parent="1">
          <mxGeometry x="270" y="190" width="160" height="50" as="geometry" />
        </mxCell>
        <mxCell id="ySOe52zMafPQUvARHLGS-7" style="edgeStyle=orthogonalEdgeStyle;rounded=0;orthogonalLoop=1;jettySize=auto;html=1;" edge="1" parent="1" source="ySOe52zMafPQUvARHLGS-4" target="ySOe52zMafPQUvARHLGS-6">
          <mxGeometry relative="1" as="geometry" />
        </mxCell>
        <mxCell id="ySOe52zMafPQUvARHLGS-30" style="edgeStyle=orthogonalEdgeStyle;rounded=0;orthogonalLoop=1;jettySize=auto;html=1;entryX=0.5;entryY=0;entryDx=0;entryDy=0;" edge="1" parent="1" source="ySOe52zMafPQUvARHLGS-4" target="ySOe52zMafPQUvARHLGS-27">
          <mxGeometry relative="1" as="geometry">
            <Array as="points">
              <mxPoint x="200" y="305" />
              <mxPoint x="200" y="1170" />
              <mxPoint x="350" y="1170" />
            </Array>
          </mxGeometry>
        </mxCell>
        <mxCell id="ySOe52zMafPQUvARHLGS-4" value="Проходимся по пользовательскому параметру кол-ва Эпох" style="shape=hexagon;perimeter=hexagonPerimeter2;whiteSpace=wrap;html=1;fixedSize=1;" vertex="1" parent="1">
          <mxGeometry x="240" y="270" width="220" height="70" as="geometry" />
        </mxCell>
        <mxCell id="ySOe52zMafPQUvARHLGS-9" style="edgeStyle=orthogonalEdgeStyle;rounded=0;orthogonalLoop=1;jettySize=auto;html=1;entryX=0.5;entryY=0;entryDx=0;entryDy=0;" edge="1" parent="1" source="ySOe52zMafPQUvARHLGS-6" target="ySOe52zMafPQUvARHLGS-8">
          <mxGeometry relative="1" as="geometry" />
        </mxCell>
        <mxCell id="ySOe52zMafPQUvARHLGS-29" style="edgeStyle=orthogonalEdgeStyle;rounded=0;orthogonalLoop=1;jettySize=auto;html=1;entryX=1;entryY=0.5;entryDx=0;entryDy=0;" edge="1" parent="1" source="ySOe52zMafPQUvARHLGS-6" target="ySOe52zMafPQUvARHLGS-4">
          <mxGeometry relative="1" as="geometry">
            <Array as="points">
              <mxPoint x="480" y="405" />
              <mxPoint x="480" y="305" />
            </Array>
          </mxGeometry>
        </mxCell>
        <mxCell id="ySOe52zMafPQUvARHLGS-6" value="Проходимся по изображениям для обучения" style="shape=hexagon;perimeter=hexagonPerimeter2;whiteSpace=wrap;html=1;fixedSize=1;" vertex="1" parent="1">
          <mxGeometry x="240" y="370" width="220" height="70" as="geometry" />
        </mxCell>
        <mxCell id="ySOe52zMafPQUvARHLGS-11" style="edgeStyle=orthogonalEdgeStyle;rounded=0;orthogonalLoop=1;jettySize=auto;html=1;entryX=0.5;entryY=0;entryDx=0;entryDy=0;" edge="1" parent="1" source="ySOe52zMafPQUvARHLGS-8" target="ySOe52zMafPQUvARHLGS-10">
          <mxGeometry relative="1" as="geometry" />
        </mxCell>
        <mxCell id="ySOe52zMafPQUvARHLGS-8" value="Получаем текущее изображение, разметку к нему, разметка является ожидаемым результатом сети" style="rounded=0;whiteSpace=wrap;html=1;" vertex="1" parent="1">
          <mxGeometry x="260" y="470" width="180" height="60" as="geometry" />
        </mxCell>
        <mxCell id="ySOe52zMafPQUvARHLGS-13" style="edgeStyle=orthogonalEdgeStyle;rounded=0;orthogonalLoop=1;jettySize=auto;html=1;entryX=0.5;entryY=0;entryDx=0;entryDy=0;" edge="1" parent="1" source="ySOe52zMafPQUvARHLGS-10" target="ySOe52zMafPQUvARHLGS-12">
          <mxGeometry relative="1" as="geometry" />
        </mxCell>
        <mxCell id="ySOe52zMafPQUvARHLGS-10" value="Переводим пиксели изображения в одну строку 28х28=784 значений в строке" style="rounded=0;whiteSpace=wrap;html=1;" vertex="1" parent="1">
          <mxGeometry x="260" y="560" width="180" height="60" as="geometry" />
        </mxCell>
        <mxCell id="ySOe52zMafPQUvARHLGS-15" style="edgeStyle=orthogonalEdgeStyle;rounded=0;orthogonalLoop=1;jettySize=auto;html=1;entryX=0.5;entryY=0;entryDx=0;entryDy=0;" edge="1" parent="1" source="ySOe52zMafPQUvARHLGS-12" target="ySOe52zMafPQUvARHLGS-14">
          <mxGeometry relative="1" as="geometry" />
        </mxCell>
        <mxCell id="ySOe52zMafPQUvARHLGS-12" value="Перемножаем матрицу входного слоя (784 значений) на матрицу весов (28х28х10)" style="rounded=0;whiteSpace=wrap;html=1;" vertex="1" parent="1">
          <mxGeometry x="260" y="650" width="180" height="60" as="geometry" />
        </mxCell>
        <mxCell id="ySOe52zMafPQUvARHLGS-17" style="edgeStyle=orthogonalEdgeStyle;rounded=0;orthogonalLoop=1;jettySize=auto;html=1;entryX=0.5;entryY=0;entryDx=0;entryDy=0;" edge="1" parent="1" source="ySOe52zMafPQUvARHLGS-14" target="ySOe52zMafPQUvARHLGS-16">
          <mxGeometry relative="1" as="geometry" />
        </mxCell>
        <mxCell id="ySOe52zMafPQUvARHLGS-14" value="Используем функцию активации" style="rounded=0;whiteSpace=wrap;html=1;" vertex="1" parent="1">
          <mxGeometry x="260" y="740" width="180" height="60" as="geometry" />
        </mxCell>
        <mxCell id="ySOe52zMafPQUvARHLGS-19" style="edgeStyle=orthogonalEdgeStyle;rounded=0;orthogonalLoop=1;jettySize=auto;html=1;entryX=0.5;entryY=0;entryDx=0;entryDy=0;" edge="1" parent="1" source="ySOe52zMafPQUvARHLGS-16" target="ySOe52zMafPQUvARHLGS-18">
          <mxGeometry relative="1" as="geometry" />
        </mxCell>
        <mxCell id="ySOe52zMafPQUvARHLGS-16" value="Макс. значение функции активации будет являться ответом сети" style="rounded=0;whiteSpace=wrap;html=1;" vertex="1" parent="1">
          <mxGeometry x="260" y="830" width="180" height="60" as="geometry" />
        </mxCell>
        <mxCell id="ySOe52zMafPQUvARHLGS-21" style="edgeStyle=orthogonalEdgeStyle;rounded=0;orthogonalLoop=1;jettySize=auto;html=1;entryX=0.5;entryY=0;entryDx=0;entryDy=0;" edge="1" parent="1" source="ySOe52zMafPQUvARHLGS-18" target="ySOe52zMafPQUvARHLGS-20">
          <mxGeometry relative="1" as="geometry" />
        </mxCell>
        <mxCell id="ySOe52zMafPQUvARHLGS-18" value="Вычисляем ошибку = значение ответа (примерно -1;+1) - ожидаемое значение (0 или 1)" style="rounded=0;whiteSpace=wrap;html=1;" vertex="1" parent="1">
          <mxGeometry x="260" y="920" width="180" height="60" as="geometry" />
        </mxCell>
        <mxCell id="ySOe52zMafPQUvARHLGS-23" style="edgeStyle=orthogonalEdgeStyle;rounded=0;orthogonalLoop=1;jettySize=auto;html=1;entryX=0.5;entryY=0;entryDx=0;entryDy=0;" edge="1" parent="1" source="ySOe52zMafPQUvARHLGS-20" target="ySOe52zMafPQUvARHLGS-22">
          <mxGeometry relative="1" as="geometry" />
        </mxCell>
        <mxCell id="ySOe52zMafPQUvARHLGS-20" value="Вычисляем матрицу корректировки весов = скорость обучения * входной слой (784 значений) * ошибку сети" style="rounded=0;whiteSpace=wrap;html=1;" vertex="1" parent="1">
          <mxGeometry x="240" y="1010" width="220" height="60" as="geometry" />
        </mxCell>
        <mxCell id="ySOe52zMafPQUvARHLGS-24" style="edgeStyle=orthogonalEdgeStyle;rounded=0;orthogonalLoop=1;jettySize=auto;html=1;entryX=0;entryY=0.5;entryDx=0;entryDy=0;" edge="1" parent="1" source="ySOe52zMafPQUvARHLGS-22" target="ySOe52zMafPQUvARHLGS-6">
          <mxGeometry relative="1" as="geometry">
            <Array as="points">
              <mxPoint x="220" y="1125" />
              <mxPoint x="220" y="405" />
            </Array>
          </mxGeometry>
        </mxCell>
        <mxCell id="ySOe52zMafPQUvARHLGS-22" value="Обновляем значение весов сети" style="rounded=0;whiteSpace=wrap;html=1;" vertex="1" parent="1">
          <mxGeometry x="285" y="1100" width="130" height="50" as="geometry" />
        </mxCell>
        <mxCell id="ySOe52zMafPQUvARHLGS-27" value="Возвращаем обученные веса сети" style="rounded=1;whiteSpace=wrap;html=1;" vertex="1" parent="1">
          <mxGeometry x="270" y="1190" width="160" height="50" as="geometry" />
        </mxCell>
      </root>
    </mxGraphModel>
  </diagram>
</mxfile>
